/* XPM */
static char *image[] = {
"48 48 391 2",
"   c None",
"00 c #1c507d",
"10 c #1b4c78",
"20 c #1b4e7a",
"30 c #1c507e",
"40 c #1d5180",
"50 c #1d5382",
"60 c #1d5484",
"70 c #1d5587",
"80 c #1f5889",
"90 c #1f588b",
":0 c #20598e",
";0 c #215b90",
"A0 c #215c92",
"B0 c #215d94",
"C0 c #235f97",
"D0 c #236098",
"E0 c #246299",
"F0 c #24629a",
"G0 c #26639d",
"H0 c #27659e",
"I0 c #27679f",
"J0 c #2867a0",
"K0 c #2968a1",
"L0 c #2a6aa2",
"M0 c #2a6aa4",
"N0 c #2a6ba4",
"O0 c #2c6ca5",
"P0 c #2d6ea7",
"Q0 c #2f6ea6",
"R0 c #2f6fa7",
"S0 c #306fa8",
"T0 c #3271a8",
"U0 c #3370a8",
"V0 c #3371a7",
"W0 c #3372a8",
"X0 c #3572a8",
"Y0 c #3676ad",
"Z0 c #23649e",
"a0 c #276ead",
"b0 c #2870b0",
"c0 c #2872b3",
"d0 c #2975b8",
"e0 c #2d7ec7",
"f0 c #2e81c9",
"g0 c #3082cd",
"h0 c #3083ce",
"i0 c #3185d0",
"j0 c #378edb",
"k0 c #388fdd",
"l0 c #3a91df",
"m0 c #3b92e0",
"n0 c #3b94e1",
"o0 c #3d95e3",
"p0 c #3e95e4",
"q0 c #4097e4",
"r0 c #4197e6",
"s0 c #429ae6",
"t0 c #449ae7",
"u0 c #459be7",
"v0 c #4190d6",
"w0 c #266eac",
"x0 c #2d7fc8",
"y0 c #2e81ca",
"z0 c #378fdc",
"01 c #3890de",
"11 c #3991df",
"21 c #3a92e0",
"31 c #3b93e0",
"41 c #3e96e4",
"51 c #429be7",
"61 c #286faf",
"71 c #2973b5",
"81 c #2974b8",
"91 c #348ad7",
":1 c #358cd9",
";1 c #368edb",
"A1 c #378fdd",
"B1 c #3b94e0",
"C1 c #3b94e2",
"D1 c #4098e7",
"E1 c #4099e8",
"F1 c #2871b1",
"G1 c #2973b4",
"H1 c #2974b7",
"I1 c #3287d2",
"J1 c #3890dd",
"K1 c #3b93de",
"L1 c #3b93e1",
"M1 c #3c95e3",
"N1 c #3d95e4",
"O1 c #3e97e4",
"P1 c #4097e6",
"Q1 c #439ae7",
"R1 c #449ae8",
"S1 c #2873b3",
"T1 c #2e80c9",
"U1 c #3084cd",
"V1 c #3186d0",
"W1 c #378edc",
"X1 c #3990de",
"Y1 c #3a92de",
"Z1 c #3a92df",
"a1 c #3e96e3",
"b1 c #4097e5",
"c1 c #4099e7",
"d1 c #439ae8",
"e1 c #2974b6",
"f1 c #2d7dc4",
"g1 c #2d7ec6",
"h1 c #3186d1",
"i1 c #378ddb",
"j1 c #3b93df",
"k1 c #3f95e2",
"l1 c #4098e6",
"m1 c #4199e7",
"n1 c #429ae7",
"o1 c #449be8",
"p1 c #2976b9",
"q1 c #2b77bc",
"r1 c #2c7dc3",
"s1 c #348ad6",
"t1 c #358cd8",
"u1 c #368dda",
"v1 c #388fdc",
"w1 c #3f94e0",
"x1 c #4197e3",
"y1 c #4199e8",
"z1 c #419ae7",
"02 c #2a76bb",
"12 c #2d7ec5",
"22 c #3083cd",
"32 c #3185cf",
"42 c #378dda",
"52 c #3a92dd",
"62 c #3b92de",
"72 c #3c93e0",
"82 c #3d94e1",
"92 c #4098e4",
":2 c #439be7",
";2 c #439be8",
"A2 c #2b79be",
"B2 c #2c7ac0",
"C2 c #2c7dc2",
"D2 c #2e80c8",
"E2 c #2f81ca",
"F2 c #3083cc",
"G2 c #388fda",
"H2 c #388edb",
"I2 c #398fdc",
"J2 c #3991dd",
"K2 c #3d94e0",
"L2 c #3e93e0",
"M2 c #4094df",
"N2 c #3f95e0",
"O2 c #4195df",
"P2 c #4298e3",
"Q2 c #459be8",
"R2 c #2c7abf",
"S2 c #2c7cc2",
"T2 c #2e7fc5",
"U2 c #3389d5",
"V2 c #378eda",
"W2 c #378fda",
"X2 c #3991dc",
"Y2 c #3c92df",
"Z2 c #3e94e0",
"a2 c #4095df",
"b2 c #3f94df",
"c2 c #4195e0",
"d2 c #4599e3",
"e2 c #2c7bc1",
"f2 c #3388d5",
"g2 c #368cd8",
"h2 c #3a91dc",
"i2 c #3d93df",
"j2 c #3e93df",
"k2 c #4394de",
"l2 c #469ce8",
"m2 c #479de8",
"n2 c #2d7ec4",
"o2 c #2f83cb",
"p2 c #3185ce",
"q2 c #3286d0",
"r2 c #3387d3",
"s2 c #378dd9",
"t2 c #3a91dd",
"u2 c #3b91de",
"v2 c #3c91de",
"w2 c #3f94de",
"x2 c #4194df",
"y2 c #4395de",
"z2 c #4699e3",
"03 c #489de8",
"13 c #2e7fc6",
"23 c #2f80c9",
"33 c #3388d4",
"43 c #378fd9",
"53 c #3990dd",
"63 c #3b91dd",
"73 c #3e92de",
"83 c #4194de",
"93 c #4195de",
":3 c #4295dd",
";3 c #4395dd",
"A3 c #4595dc",
"B3 c #4699e2",
"C3 c #2f80c8",
"D3 c #3387d2",
"E3 c #358ad6",
"F3 c #358bd7",
"G3 c #3b90dc",
"H3 c #3d92dd",
"I3 c #3e91dd",
"J3 c #4195dc",
"K3 c #4495dc",
"L3 c #4799e1",
"M3 c #2f82ca",
"N3 c #3184cd",
"O3 c #3285d0",
"P3 c #3387d1",
"Q3 c #3489d4",
"R3 c #398fdb",
"S3 c #3b91dc",
"T3 c #3c91dd",
"U3 c #3d92de",
"V3 c #3e91de",
"W3 c #4094de",
"X3 c #4395dc",
"Y3 c #4595da",
"Z3 c #4798e0",
"a3 c #3184cc",
"b3 c #3284ce",
"c3 c #3388d3",
"d3 c #358bd6",
"e3 c #378dd7",
"f3 c #398edb",
"g3 c #3990dc",
"h3 c #3b91db",
"i3 c #3c91dc",
"j3 c #3d91dd",
"k3 c #4092dd",
"l3 c #4095dd",
"m3 c #3284cd",
"n3 c #3386d0",
"o3 c #378dd8",
"p3 c #3f93dd",
"q3 c #3f94dd",
"r3 c #4094dd",
"s3 c #4194dc",
"t3 c #4798df",
"u3 c #3285ce",
"v3 c #3286d1",
"w3 c #3388d2",
"x3 c #358ad4",
"y3 c #358ad5",
"z3 c #398eda",
"04 c #3a8fda",
"14 c #3b90db",
"24 c #3d91dc",
"34 c #3d92dc",
"44 c #3f92dc",
"54 c #3f92dd",
"64 c #3f94dc",
"74 c #4192da",
"84 c #4393db",
"94 c #4494db",
":4 c #4594d9",
";4 c #4797df",
"A4 c #499ee8",
"B4 c #3285cf",
"C4 c #3388d1",
"D4 c #388eda",
"E4 c #3b8fdb",
"F4 c #3c91db",
"G4 c #3d91db",
"H4 c #3f93dc",
"I4 c #4192db",
"J4 c #4593d8",
"K4 c #4593d7",
"L4 c #4492d6",
"M4 c #4491d5",
"N4 c #4491d4",
"O4 c #4697de",
"P4 c #3286cf",
"Q4 c #368bd6",
"R4 c #388dd9",
"S4 c #388ed9",
"T4 c #3a8fdb",
"U4 c #3f91db",
"V4 c #4093dc",
"W4 c #4394db",
"X4 c #4494da",
"Y4 c #57a1e1",
"Z4 c #7ebaef",
"a4 c #7fbaef",
"b4 c #3387d0",
"c4 c #3589d4",
"d4 c #368ad5",
"e4 c #378cd7",
"f4 c #388dd8",
"g4 c #3b8fda",
"h4 c #3d90da",
"i4 c #3e93db",
"j4 c #3f92db",
"k4 c #4092db",
"l4 c #4294da",
"m4 c #4997db",
"n4 c #7ebaed",
"o4 c #c0dbf3",
"p4 c #3588d2",
"q4 c #368ad4",
"r4 c #378ad6",
"s4 c #378bd6",
"t4 c #388cd7",
"u4 c #388dd7",
"v4 c #398ed9",
"w4 c #3b8fd9",
"x4 c #3b90d9",
"y4 c #3d8fd9",
"z4 c #3c90da",
"05 c #3e91db",
"15 c #3e92db",
"25 c #3e91da",
"35 c #4091da",
"45 c #3f93db",
"55 c #4193db",
"65 c #4193da",
"75 c #4293da",
"85 c #4393da",
"95 c #4392d9",
":5 c #4493d9",
";5 c #4492d8",
"A5 c #88bce9",
"B5 c #e8eff6",
"C5 c #2972b2",
"D5 c #2970b0",
"E5 c #2870af",
"F5 c #286fad",
"G5 c #286eac",
"H5 c #fafafa",
"I5 c #f9f9f9",
"J5 c #f8f8f8",
"K5 c #f6f6f6",
"L5 c #f5f5f5",
"M5 c #f7f7f7",
"N5 c #276daa",
"O5 c #dee8f0",
"P5 c #fcfcfc",
"Q5 c #fdfdfd",
"R5 c #eef2f5",
"S5 c #276caa",
"T5 c #276ca9",
"U5 c #276ba8",
"V5 c #266ba7",
"W5 c #266aa6",
"X5 c #2669a5",
"Y5 c #2669a4",
"Z5 c #2668a3",
"a5 c #2568a2",
"b5 c #2567a1",
"c5 c #2566a0",
"d5 c #25659f",
"e5 c #24659e",
"f5 c #24649d",
"g5 c #24649c",
"h5 c #24639b",
"i5 c #24639a",
"j5 c #236299",
"k5 c #236198",
"l5 c #236097",
"m5 c #6796c1",
"n5 c #6796c0",
"o5 c #6796bf",
"p5 c #6795be",
"q5 c #6695be",
"r5 c #6694bd",
"s5 c #6694bc",
"t5 c #6693bc",
"u5 c #6593bb",
"v5 c #6592ba",
"w5 c #6591b9",
"x5 c #6591b8",
"y5 c #6591b7",
"z5 c #6590b7",
"06 c #658fb6",
"16 c #5484ad",
"26 c #588ab7",
"36 c #336c9e",
"46 c #3f79ad",
"56 c #236096",
"                                                                                                ",
"                                                                                                ",
"                                                                                                ",
"                                                                                                ",
"                                                                                                ",
"                                                                                                ",
"        565656565656565656565656565656565646                                                    ",
"        56565656565656565656565656565656563626                                                  ",
"        5656565656565656565656565656565656561626                                                ",
"        5656565656565656565656565656565656563606z5z5y5x5x5w5v5v5u5u5t5s5r5r5q5q5p5o5n5m5        ",
"        5656565656565656565656565656565656l5k5k5k5j5i5h5g5f5f5e5d5c5b5b5b5a5Z5Y5X5X5W5V5        ",
"        565656565656565656565656565656l5k5k5k5j5i5h5g5g5f5e5d5c5c5b5b5a5Z5Y5Y5X5W5V5U5T5        ",
"        56565656565656565656565656l5l5k5k5j5i5i5h5g5f5e5d5d5c5b5b5a5Z5Z5Y5X5W5V5U5U5T5S5        ",
"        56R5Q5Q5Q5Q5Q5Q5Q5Q5Q5Q5P5P5P5P5P5P5P5P5P5P5P5P5P5P5P5P5P5P5P5P5P5P5P5P5P5P5O5N5        ",
"        56M5L5L5L5L5L5L5L5K5K5K5K5K5K5M5M5M5M5M5M5J5J5J5J5J5J5I5I5I5I5I5I5I5I5I5I5I5H5G5        ",
"        56L5L5L5L5L5L5L5K5K5K5K5K5K5M5M5M5M5M5M5J5J5J5J5J5J5J5I5I5I5I5I5I5I5I5I5I5I5I5F5        ",
"        56L5L5L5L5L5L5L5K5K5K5K5K5K5M5M5M5M5M5M5J5J5J5J5J5J5I5I5I5I5I5I5I5I5I5I5I5I5I5E5        ",
"        56L5L5L5L5L5L5K5K5K5K5K5K5M5M5M5M5M5M5M5J5J5J5J5J5J5I5I5I5I5I5I5I5I5I5I5I5I5I5D5        ",
"        56L5L5L5L5L5L5K5K5K5K5K5K5M5M5M5M5M5M5J5J5J5J5J5J5I5I5I5I5I5I5I5I5I5I5I5I5I5I5C5        ",
"        56L5L5L5L5L5K5K5K5K5K5K5K5M5B5A5;5:595857565554535251505z4y4x4w4v4u4t4s4r4q4p4p4        ",
"        l5L5L5L5L5L5K5K5K5K5K5K5M5o4n4m4:5858575l455k4k4j4i425h4y4x4g4v4f4t4e4t4d4c4p4b4        ",
"        a4a4a4a4a4a4a4a4a4a4a4a4a4Z4Y4X4858575W455k4V4j4i4U4h4h4x4g4T4S4R4e4t4Q4c4p4b4P4        ",
"        O4N4N4N4M4L4L4L4L4K4J4J4:5:5X48585W4W4I4V445H415U4G4G4F4E4T4D4R4u4t4Q4c4p4C4P4B4        ",
"        A4;4M4M4L4L4L4K4K4J4:4:5X4X48594W48474V464H454443424F41404D4z3u4t4Q4y3x3w3v3B4u3        ",
"        A4A4t3L4L4L4K4J4J4:4:5X4948594W484s3r3q3H454p33424F414T4D4z3S4o3e4y3x3w3v3n3u3m3        ",
"        A4A4A4t3K4K4J4:4:4X4X4949494W4W4s3l3q3k344p3j324i3h3T4g3f3R4e3e4d3x3c3v3n3B4b3a3        ",
"        A4A4A4A4Z3J4:4Y3X494949494W4X3s3l3W3k3H4H4V3U3T3S3T4g3R3R4e3e4d3y3Q3c3P3O3B4N3M3        ",
"        A4A4A4A4A4L3Y39494K39494X3X3J3l3r3W3r3q3I3H3T3S3G3g3R3R4e3o3F3E3y3c3D3O3B4N3M3C3        ",
"        A4A4A4A4A4A4B3A3K39494X3;3:39383W3W3q373H3T363G353g3z343o3F3E3y333D3v3B4N3M32313        ",
"        A4A4A4A4A40303z294K3X3;3y283x2q3W3w273U3T3v2u2t2g3z343s2F3Q4y333r2D3q2p2o22313n2        ",
"        A4A4A4A40303m2l2z2;3;3k283x2w2W3w2j2i2i2v2u2h2g3R343s2g2Q4E3f233D3q2p2o22313n2e2        ",
"        A4A4A40303m2l2l2l2d2k283c2b2a2b2j2Z2i2Y2u2h2X2R3W2V2s2g2E3U233D3q2p2o22313T2S2R2        ",
"        A4A40303m2l2l2l2Q2Q2P2O2N2M2b2j2L2K2Y2u2t2J2I2H2G2s2g2F3U233D3q2p2F2E2D2T2C2B2A2        ",
"        A40303m2l2l2l2Q2Q2;2:292M2b2b2L282726252J2I2H2G242g2F3U2U2r2v33222M3D212C2B2A202        ",
"        0303m2l2l2l2Q2Q2:2:2z1y1x1N2w1K2Y26252J2I2v1G242u1t1s1U2r2v33222M3D212r1e2R2q1p1        ",
"        m2m2l2l2l2Q2Q2o1;2n1y1m1l1k1K2Y2j152J2t253v1i1u1t1s1U2r2h13222M3D2g1f1e2R2q1p1e1        ",
"        m2l2l2l2Q2Q2o1d1n1c1m1l1b1a18272Z1Y1t2X1v1W1u1t1s1U2r2h1V1U1o2T1g1f1e2R2q1p1e1S1        ",
"        l2l2l2Q2Q2R1Q1n1c1m1P1l1O1N1M1L1K1t2X1J1W1u1t1s1U233I1V1U1o2T1g1f1e2R2q102H1G1F1        ",
"        l2l2Q2Q2R1Q1n1E1m1D1l1O1N1M1C1B1Z1X1J1A1;1:191U233I1V1U1o2T1g1f1S2R2A2028171F161        ",
"        l2Q2Q2o1;251E1m1l1l141N1M1C131211101z0;1:191U233I1V1U1F2y0x012S2B2A2028171F1E5w0        ",
"        v0u0t0Q1s0D1r0b1q0p0o0o0n0m0l053k0j0u1t1s1f2r2I1i0h0g0f0e012C2B2A202d0e1c0b0a0Z0        ",
"        Y0X0X0W0V0U0T0T0S0R0Q0P0O0O0N0M0L0K0J0I0H0G0F0E0D0C0B0A0;0:090807060504030201000        ",
"                                                                                                ",
"                                                                                                ",
"                                                                                                ",
"                                                                                                ",
"                                                                                                ",
"                                                                                                "};
