/* XPM */
static char *image[] = {
"48 48 152 2",
"   c None",
"00 c #1c1e20",
"10 c #2c2d31",
"20 c #2c2e32",
"30 c #2e2f34",
"40 c #2e3035",
"50 c #2b2d30",
"60 c #2d2e32",
"70 c #2d2f33",
"80 c #2f3035",
"90 c #303136",
":0 c #2f3136",
";0 c #197df0",
"A0 c #2e3034",
"B0 c #2c2e31",
"C0 c #187ff1",
"D0 c #2f3135",
"E0 c #2d2f32",
"F0 c #1780f0",
"G0 c #575859",
"H0 c #b5b5b6",
"I0 c #2f3236",
"J0 c #303237",
"K0 c #cdcdce",
"L0 c #2d3033",
"M0 c #1682f0",
"N0 c #858788",
"O0 c #57595a",
"P0 c #303236",
"Q0 c #313237",
"R0 c #313236",
"S0 c #2e3033",
"T0 c #1584f0",
"U0 c #868788",
"V0 c #323338",
"W0 c #313337",
"X0 c #2f3134",
"Y0 c #1485ef",
"Z0 c #878788",
"a0 c #ececec",
"b0 c #59595b",
"c0 c #313438",
"d0 c #323539",
"e0 c #323439",
"f0 c #2f3235",
"g0 c #1387ef",
"h0 c #595a5c",
"i0 c #b5b6b7",
"j0 c #333439",
"k0 c #cecece",
"l0 c #303235",
"m0 c #1289ef",
"n0 c #323438",
"o0 c #33353a",
"p0 c #303336",
"q0 c #118bef",
"r0 c #313336",
"s0 c #108cee",
"t0 c #333438",
"u0 c #35363a",
"v0 c #323437",
"w0 c #0f8eee",
"x0 c #333539",
"y0 c #35363b",
"z0 c #34373c",
"01 c #33363a",
"11 c #323538",
"21 c #343639",
"31 c #0e90ee",
"41 c #36373c",
"51 c #34363a",
"61 c #36363b",
"71 c #36383b",
"81 c #36383d",
"91 c #35373c",
":1 c #35373b",
";1 c #333538",
"A1 c #0d91ed",
"B1 c #34373b",
"C1 c #1e1f21",
"D1 c #333639",
"E1 c #0c93ed",
"F1 c #36393b",
"G1 c #35383c",
"H1 c #1f2022",
"I1 c #34373a",
"J1 c #37383c",
"K1 c #0b95ed",
"L1 c #36383c",
"M1 c #37393d",
"N1 c #37383d",
"O1 c #202123",
"P1 c #35373a",
"Q1 c #36393d",
"R1 c #0a97ed",
"S1 c #37393e",
"T1 c #373a3e",
"U1 c #202224",
"V1 c #35383b",
"W1 c #0998ec",
"X1 c #fefefe",
"Y1 c #383a3f",
"Z1 c #212325",
"a1 c #089aec",
"b1 c #383b3f",
"c1 c #393b3f",
"d1 c #383b40",
"e1 c #222325",
"f1 c #36393c",
"g1 c #3a3b40",
"h1 c #079cec",
"i1 c #393b3e",
"j1 c #3a3c41",
"k1 c #ffffff",
"l1 c #222426",
"m1 c #373a3d",
"n1 c #3a3d42",
"o1 c #069deb",
"p1 c #383c40",
"q1 c #393d41",
"r1 c #232527",
"s1 c #373b3e",
"t1 c #393c40",
"u1 c #059feb",
"v1 c #242628",
"w1 c #383b3e",
"x1 c #393c3f",
"y1 c #393d40",
"z1 c #3a3d40",
"02 c #3a3e41",
"12 c #3b3f42",
"22 c #bcb4a1",
"32 c #3c3f42",
"42 c #beb6a3",
"52 c #3c4043",
"62 c #393533",
"72 c #beb7a4",
"82 c #3d4043",
"92 c #c0b8a6",
":2 c #3d4144",
";2 c #c1baa7",
"A2 c #3e4245",
"B2 c #c1bba8",
"C2 c #3f4245",
"D2 c #c3bcaa",
"E2 c #3f4346",
"F2 c #383432",
"G2 c #c4bdab",
"H2 c #c4beac",
"I2 c #404447",
"J2 c #414548",
"K2 c #424649",
"                                                                                                ",
"                                                                                                ",
"                                                                                                ",
"                                                                                                ",
"            K2K2K2K2K2K2K2K2K2K2K2K2K2K2K2K2K2K2K2K2K2K2K2K2K2K2K2K2K2K2K2K2K2K2K2K2            ",
"            J2J2J2J2J2J2J2J2J2J2J2J2J2J2J2J2J2J2J2J2J2J2J2J2J2J2J2J2J2J2J2J2J2J2J2J2            ",
"            I2I2H2H2H2H2H2H2H2H2H2H2H2H2H2H2H2H2H2H2H2H2H2H2H2H2H2H2H2H2H2H2H2H2I2I2            ",
"            I2I2G2G2G2G2G2G2G2G2G2G2G2G2G2G2G2G2G2G2G2G2G2G2G2G2G2G2F2F2F2G2G2G2I2I2            ",
"            E2E2D2D2D2D2D2D2D2D2D2D2D2D2D2D2D2D2D2D2D2D2D2D2D2D2D2F2D2D2D2F2D2D2E2E2            ",
"            C2C2B2B2B2B2B2B2B2B2B2B2B2B2B2B2B2B2B2B2B2B2B2B2B2B2B2F2B2B2B2F2B2B2C2C2            ",
"            A2A2;2;2;2;2;2;2;2;2;2;2;2;2;2;2;2;2;2;2;2;2;2;2;2;2;2F2;2;2;2F2;2;2A2A2            ",
"            :2:292929292929292929292929292929292929292929292929292F2929292F29292:2:2            ",
"            828272727272727272727272727272727272727272727272727272627272726272728282            ",
"            525242424242424242424242424242424242424242424242424242426262624242425252            ",
"            323222222222222222222222222222222222222222222222222222222222222222223232            ",
"            121212121212121212121212121212121212121212121212121212121212121212121212            ",
"            020202020202020202020202020202020202020202020202020202020202020202020202            ",
"            z1z1z1z1z1z1z1z1z1z1z1z1z1z1z1z1z1z1z1z1z1z1z1z1z1z1z1z1z1z1z1z1z1z1z1z1            ",
"            y1y1y1y1y1y1y1y1y1y1y1y1y1y1y1y1y1y1y1y1y1y1y1y1y1y1y1y1y1y1y1y1y1y1y1y1            ",
"            x1x1x1x1x1x1x1x1x1x1x1x1x1x1x1x1x1x1x1x1x1x1x1x1x1x1x1x1x1x1x1x1x1x1x1x1            ",
"            w1w1v1v1v1v1v1v1v1v1v1z1w1w1v1v1v1v1v1v1v1v1v1z1w1w1u1u1u1u1u1u1u1u1t1w1            ",
"            s1s1r1r1r1r1r1r1r1r1r1q1p1s1r1r1r1r1r1r1r1r1r1q1p1s1o1o1o1o1o1o1o1o1n1p1            ",
"            m1m1l1l1l1l1k1l1l1l1l1j1t1i1l1l1l1l1l1l1l1l1l1j1t1i1h1h1h1h1h1h1h1h1t1g1            ",
"            f1f1e1e1e1e1k1e1e1e1e1d1c1b1e1e1e1e1e1e1e1e1e1d1c1b1a1a1a1a1a1a1a1a1c1b1            ",
"            f1f1Z1Z1k1k1k1k1k1Z1Z1c1b1Y1Z1Z1X1X1X1X1X1Z1Z1c1b1Y1W1W1W1W1W1W1W1W1b1w1            ",
"            V1V1U1U1U1U1k1U1U1U1U1T1S1T1U1U1U1U1U1U1U1U1U1T1S1T1R1R1R1R1R1R1R1R1T1Q1            ",
"            P1P1O1O1O1O1k1O1O1O1O1N1M1L1O1O1O1O1O1O1O1O1O1N1M1L1K1K1K1K1K1K1K1K1L1J1            ",
"            I1I1H1H1H1H1H1H1H1H1H1Q1G1F1H1H1H1H1H1H1H1H1H1Q1G1F1E1E1E1E1E1E1E1E1L1V1            ",
"            D1D1C1C1C1C1C1C1C1C1C1B1V1B1C1C1C1C1C1C1C1C1C1B1V1B1A1A1A1A1A1A1A1A1I1I1            ",
"            ;1;1:191819171:161:151P151514181819171:161:151P15151313131313131313121;1            ",
"            11111101z0V1B1y0B101I10101x0D101z0V1B1y0B101I10101x0w0w0w0w0w0w0w0w01111            ",
"            v0v0v0v02151u051x021x0x0t0;1v0v02151u051x021x0x0t0;1s0s0s0s0s0s0s0s0v0v0            ",
"            r0r0v1v1v1v1v1v1v1v1v1x0r0r0v1v1v1v1v1v1v1v1v1x0r0r0q0q0q0q0q0q0q0q0r0r0            ",
"            p0p0r1r1r1r1r1r1r1r1r1o0n0p0r1r1r1r1r1r1r1r1r1o0n0p0m0m0m0m0m0m0m0m0p0p0            ",
"            l0l0l1l1l1l1k0l1l1l1l1o0j0v0l1l1i0h0l1h0i0l1l1o0j0v0g0g0g0g0g0g0g0g0l0l0            ",
"            f0f0e1e1e1e1e1e1e1e1e1e0d0c0e1e1b0a0Z0a0b0e1e1e0d0c0Y0Y0k1k1k1k1Y0Y0f0f0            ",
"            X0X0Z1Z1k1k1k1k1k1Z1Z1n0W0V0Z1Z1Z1U0k1U0Z1Z1Z1n0W0V0T0T0T0T0T0T0T0T0X0X0            ",
"            S0S0U1U1U1U1U1U1U1U1U1R0Q0P0U1U1O0a0N0a0O0U1U1R0Q0P0M0M0k1k1k1k1M0M0S0S0            ",
"            L0L0O1O1O1O1K0O1O1O1O1J0I0f0O1O1H0G0O1G0H0O1O1J0I0f0F0F0F0F0F0F0F0F0L0L0            ",
"            E0E0H1H1H1H1H1H1H1H1H1D0X0X0H1H1H1H1H1H1H1H1H1D0X0X0C0C0C0C0C0C0C0C0E0E0            ",
"            B0B0C1C1C1C1C1C1C1C1C1A0S0S0C1C1C1C1C1C1C1C1C1A0S0S0;0;0;0;0;0;0;0;0B0B0            ",
"            B0B0A0:090:0D0X080A0A0S0S07080J090:0D0X080A0A0S0S07060E0B0B0B0B0B0B0B0B0            ",
"            5050507040A0S0307070E0E02010B07040A0S0307070E0E02010B0505050505050505050            ",
"            000000000000000000000000000000000000000000000000000000000000000000000000            ",
"                                                                                                ",
"                                                                                                ",
"                                                                                                ",
"                                                                                                "};
