/* XPM */
static char *image[] = {
"64 64 241 2",
"   c None",
"00 c #235380",
"10 c #3070aa",
"20 c #3372ab",
"30 c #3271ab",
"40 c #979fa5",
"50 c #969ea4",
"60 c #959da3",
"70 c #959da2",
"80 c #949ca2",
"90 c #949ba1",
":0 c #939ba0",
";0 c #92999f",
"A0 c #91999e",
"B0 c #91989e",
"C0 c #90989d",
"D0 c #8f979d",
"E0 c #8f969c",
"F0 c #8d949a",
"G0 c #8c9499",
"H0 c #8c9399",
"I0 c #8b9298",
"J0 c #8b9297",
"K0 c #8a9197",
"L0 c #899095",
"M0 c #888f95",
"N0 c #888f94",
"O0 c #878e93",
"P0 c #868d93",
"Q0 c #868d92",
"R0 c #858c91",
"S0 c #8e969b",
"T0 c #99a1a7",
"U0 c #3573ab",
"V0 c #3472ab",
"W0 c #c1c7cb",
"X0 c #c0c7ca",
"Y0 c #b7bec1",
"Z0 c #3775ac",
"a0 c #3674ac",
"b0 c #c2c9cd",
"c0 c #bdc4c8",
"d0 c #bcc2c6",
"e0 c #bdc4c7",
"f0 c #bfc6ca",
"g0 c #bec5c9",
"h0 c #bdc3c7",
"i0 c #bcc3c6",
"j0 c #bbc2c6",
"k0 c #bac1c5",
"l0 c #bac0c4",
"m0 c #b9bfc3",
"n0 c #b8bfc2",
"o0 c #b6bcc0",
"p0 c #b5bbbf",
"q0 c #b4bbbe",
"r0 c #b3babd",
"s0 c #b3b9bd",
"t0 c #b1b7bb",
"u0 c #b0b6ba",
"v0 c #afb6b9",
"w0 c #afb5b8",
"x0 c #aeb4b8",
"y0 c #adb3b7",
"z0 c #acb2b6",
"01 c #abb1b4",
"11 c #aab0b3",
"21 c #a9afb3",
"31 c #a8aeb2",
"41 c #b6bdc1",
"51 c #3976ad",
"61 c #3875ad",
"71 c #3a77ae",
"81 c #3976ae",
"91 c #3c78ae",
":1 c #3b77ae",
";1 c #3e79af",
"A1 c #3d78af",
"B1 c #3f7ab0",
"C1 c #3e79b0",
"D1 c #417cb1",
"E1 c #407bb0",
"F1 c #c6cdd1",
"G1 c #437db1",
"H1 c #427cb1",
"I1 c #2f3537",
"J1 c #c7ced2",
"K1 c #457eb2",
"L1 c #447db2",
"M1 c #303638",
"N1 c #c8cfd3",
"O1 c #477fb3",
"P1 c #467eb3",
"Q1 c #313739",
"R1 c #c9d0d4",
"S1 c #4881b4",
"T1 c #4780b3",
"U1 c #33383a",
"V1 c #cad1d5",
"W1 c #4a82b4",
"X1 c #4981b4",
"Y1 c #343a3b",
"Z1 c #cbd2d5",
"a1 c #dae5ef",
"b1 c #4b82b5",
"c1 c #363b3c",
"d1 c #ccd3d6",
"e1 c #4d84b6",
"f1 c #dae5f0",
"g1 c #4c83b5",
"h1 c #373c3d",
"i1 c #cdd4d7",
"j1 c #4f85b6",
"k1 c #4e84b6",
"l1 c #383d3e",
"m1 c #ced5d8",
"n1 c #5186b7",
"o1 c #5085b7",
"p1 c #3a3f3f",
"q1 c #cfd5d9",
"r1 c #5388b8",
"s1 c #dbe6f0",
"t1 c #5287b8",
"u1 c #3b4040",
"v1 c #d0d6da",
"w1 c #dce6f0",
"x1 c #5488b9",
"y1 c #3d4141",
"z1 c #d1d7da",
"02 c #568ab9",
"12 c #dce7f0",
"22 c #5589b9",
"32 c #3e4242",
"42 c #d2d8db",
"52 c #acc5dd",
"62 c #abc4dc",
"72 c #3f4443",
"82 c #d3d9dc",
"92 c #fbfbfb",
":2 c #414544",
";2 c #d4dadd",
"A2 c #fafafa",
"B2 c #424645",
"C2 c #d5dbde",
"D2 c #f9f9f9",
"E2 c #f1f1f1",
"F2 c #444746",
"G2 c #d6dcdf",
"H2 c #f8f8f8",
"I2 c #efefef",
"J2 c #454947",
"K2 c #d7dddf",
"L2 c #f7f7f7",
"M2 c #eeeeee",
"N2 c #464a48",
"O2 c #d8dee0",
"P2 c #f6f6f6",
"Q2 c #ececec",
"R2 c #ebebeb",
"S2 c #484b49",
"T2 c #d9dfe1",
"U2 c #f5f5f5",
"V2 c #eaeaea",
"W2 c #e9e9e9",
"X2 c #494c4a",
"Y2 c #dae0e2",
"Z2 c #f4f4f4",
"a2 c #e8e8e8",
"b2 c #e7e7e7",
"c2 c #4b4e4b",
"d2 c #f3f3f3",
"e2 c #e6e6e6",
"f2 c #e5e5e5",
"g2 c #e2e2e2",
"h2 c #e1e1e1",
"i2 c #4c4f4c",
"j2 c #dce1e4",
"k2 c #dbe0e3",
"l2 c #dadfe2",
"m2 c #f2f2f2",
"n2 c #e3e3e3",
"o2 c #555855",
"p2 c #d2d2d2",
"q2 c #e0e0e0",
"r2 c #545754",
"s2 c #dde2e5",
"t2 c #f0f0f0",
"u2 c #6f716e",
"v2 c #b4b4b4",
"w2 c #dfdfdf",
"x2 c #dedede",
"y2 c #afafae",
"z2 c #dee3e5",
"03 c #dbe0e1",
"13 c #aeb0ae",
"23 c #dddddd",
"33 c #dcdcdc",
"43 c #737572",
"53 c #b8bab8",
"63 c #dfe4e6",
"73 c #dbe0e2",
"83 c #797b78",
"93 c #949593",
":3 c #dbdbdb",
";3 c #dadada",
"A3 c #d9d9d9",
"B3 c #d8d8d8",
"C3 c #d6d6d6",
"D3 c #919290",
"E3 c #7a7b78",
"F3 c #edeeed",
"G3 c #7c7e7b",
"H3 c #767774",
"I3 c #b2b2b1",
"J3 c #cccccc",
"K3 c #cbcbcb",
"L3 c #b0b0af",
"M3 c #757673",
"N3 c #7a7c79",
"O3 c #ededed",
"P3 c #5b5d59",
"Q3 c #777875",
"R3 c #babbb9",
"S3 c #fefefe",
"T3 c #d8dddf",
"U3 c #d7dcde",
"V3 c #d5dadc",
"W3 c #d5d9db",
"X3 c #d4d8da",
"Y3 c #dadfe1",
"Z3 c #d3d8d9",
"a3 c #d9dee0",
"b3 c #ffffff",
"c3 c #e0e5e7",
"d3 c #3eaee9",
"e3 c #3daee9",
"f3 c #57616a",
"g3 c #eff0f1",
"h3 c #e1e3e4",
"i3 c #838b92",
"j3 c #566069",
"                                                                                                                                ",
"                                                                                                                                ",
"                                                                                                                                ",
"                                                                                                                                ",
"                                                                                                                                ",
"                                                                                                                                ",
"j3j3j3j3j3j3j3j3j3j3j3j3j3j3j3j3j3j3j3j3j3j3j3j3j3j3j3j3j3j3j3j3j3j3j3j3j3j3j3j3j3j3j3j3j3j3j3j3j3j3j3j3j3j3j3j3j3j3j3j3j3j3j3j3",
"j3j3j3j3j3j3j3j3j3j3j3j3j3j3j3j3j3j3j3j3j3j3j3j3j3j3j3j3j3j3j3j3j3j3j3j3j3j3j3j3j3j3j3j3j3j3j3j3j3j3j3j3j3j3j3j3j3j3i3h3h3i3j3j3",
"j3j3j3j3j3j3j3j3j3j3j3j3j3j3j3j3j3j3j3j3j3j3j3j3j3j3j3j3j3j3j3j3j3j3j3j3j3j3j3j3j3j3j3j3j3j3j3j3j3j3j3j3j3j3j3j3j3j3h3g3g3h3j3j3",
"j3j3j3j3j3j3j3j3j3j3j3j3j3j3j3j3j3j3j3j3j3j3j3j3j3j3j3j3j3j3j3j3j3j3j3j3j3j3j3j3j3j3j3j3j3j3j3j3j3j3j3j3j3j3j3j3j3j3h3g3g3h3j3j3",
"j3j3j3j3j3j3j3j3j3j3j3j3j3j3j3j3j3j3j3j3j3j3j3j3j3j3j3j3j3j3j3j3j3j3j3j3j3j3j3j3j3j3j3j3j3j3j3j3j3j3j3j3j3j3j3j3j3j3i3h3h3i3j3j3",
"f3f3f3f3f3f3f3f3f3f3f3f3f3f3f3f3f3f3f3f3f3f3f3f3f3f3f3f3f3f3f3f3f3f3f3f3f3f3f3f3f3f3f3f3f3f3f3f3f3f3f3f3f3f3f3f3f3f3f3f3f3f3f3f3",
"e3e3e3e3e3e3e3e3e3e3e3e3e3e3e3e3e3e3e3e3e3e3e3e3e3e3e3e3e3e3e3e3e3e3e3e3e3e3e3e3e3e3e3e3e3e3e3e3e3e3e3e3e3e3e3e3e3e3e3e3e3e3e3d3",
"c3c3c3c3c3c3c3c3c3c3c3c3c3c3c3c3c3c3c3c3c3c3c3c3c3c3c3c3c3c3c3c3c3c3c3c3c3c3c3c3c3c3c3c3c3c3c3c3c3c3c3c3c3c3c3c3c3c3c3c3c3c3c3c3",
"c3c3c3c3c3c3c3c3c3c3c3c3c3c3c3c3c3c3c3c3c3c3c3c3c3c3c3c3c3c3c3c3c3c3c3c3c3c3c3c3c3c3c3c3c3c3c3c3c3c3c3c3c3c3c3c3c3c3c3c3c3c3c3c3",
"c3c3b3b3b3b3b3b3b3b3b3b3b3b3b3b3b3b3b3b3b3b3b3b3b3b3b3b3b3b3b3b3b3b3b3b3b3b3b3b3b3b3b3b3b3b3b3b3b3b3b3b3b3b3b3b3b3b3b3b3b3b3a3c3",
"c3c3b3b3b3b3b3b3b3b3b3b3b3b3b3b3b3b3b3b3b3b3b3b3b3b3b3b3b3b3b3b3b3b3b3b3b3b3b3b3b3b3b3b3b3b3b3b3b3b3b3b3b3b3b3b3b3b3b3b3b3b3Z3Y3",
"c3c3b3b3b3b3b3b3b3b3b3b3b3b3b3b3b3b3b3b3b3b3b3b3b3b3b3b3b3b3b3b3b3b3b3b3b3b3b3b3b3b3b3b3b3b3b3b3b3b3b3b3b3b3b3b3b3b3b3b3b3b3X3W3",
"c3c3b3b3b3b3b3b3b3b3b3b3b3b3b3b3b3b3b3b3b3b3b3b3b3b3b3b3b3b3b3b3b3b3b3b3b3b3b3b3b3b3b3b3b3b3b3b3b3b3b3b3b3b3b3b3b3b3b3b3b3b3W3V3",
"c3c3b3b3b3b3b3b3b3b3b3b3b3b3b3b3b3b3b3b3b3b3b3b3b3b3b3b3b3b3b3b3b3b3b3b3b3b3b3b3b3b3b3b3b3b3b3b3b3b3b3b3b3b3b3b3b3b3b3b3b3b3V3U3",
"c3c3b3b3b3b3b3b3b3b3b3b3b3b3b3b3b3b3b3b3b3b3b3b3b3b3b3b3b3b3b3b3b3b3b3b3b3b3b3b3b3b3b3b3b3b3b3b3b3b3b3b3b3b3b3b3b3b3b3b3b3b3U3T3",
"c3c3b3b3b3b3b3b3b3b3b3b3b3b3b3b3b3b3b3b3b3b3b3b3b3b3b3b3b3S3R3Q3P3P3Q3R3S3b3b3b3b3b3b3b3b3b3b3b3b3b3b3b3b3b3b3b3b3b3b3b3b3b3T3a3",
"c3c3b3b3b3b3b3b3b3b3b3b3b3b3b3b3b3b3b3b3b3b3b3b3b3b3b3b3O3N3M3L3K3J3I3H3G3F3b3b3b3b3b3b3b3b3b3b3b3b3b3b3b3b3b3b3b3b3b3b3b3b3a3Y3",
"c3c3b3b3b3b3b3b3b3b3b3b3b3b3b3b3b3b3b3b3b3b3b3b3b3b3b3S3E3D3C3B3A3;3:3:39383S3b3b3b3b3b3b3b3b3b3b3b3b3b3b3b3b3b3b3b3b3b3b3b3Y373",
"6363b3b3b3b3b3b3b3b3b3b3b3b3b3b3b3b3b3b3b3b3b3b3b3b3b35343C3B3A3;3:33323234313b3b3b3b3b3b3b3b3b3b3b3b3b3b3b3b3b3b3b3b3b3b3b3Y303",
"z2z2b3b3b3b3b3b3b3b3b3b3b3b3b3b3b3b3b3b3b3b3b3b3b3b3b343y2B3A3;3:33323x2w2v2u2t2b3b3b3b3b3b3b3b3b3b3b3b3b3b3b3b3b3b3b3b3b3b3Y373",
"s2s2b3b3b3b3b3b3b3b3b3b3b3b3b3b3b3b3b3b3b3b3b3b3b3b3b3r2K3A3;3:33323x2w2q2p2o2n2m2b3b3b3b3b3b3b3b3b3b3b3b3b3b3b3b3b3b3b3b3b3l2k2",
"j2j2b3b3b3b3b3b3b3b3b3b3b3b3b3b3b3b3b3b3b3b3b3b3b3b3b3i2A3;3:33323x2w2q2h2g2i2f2e2d2b3b3b3b3b3b3b3b3b3b3b3b3b3b3b3b3b3b3b3b3l2k2",
"k2k2b3b3b3b3b3b3b3b3b3b3b3b3b3b3b3b3b3b3b3b3b3b3b3b3b3c2;3:33323x2w2q2h2g2n2c2e2b2a2Z2b3b3b3b3b3b3b3b3b3b3b3b3b3b3b3b3b3b3b3l2k2",
"Y2Y2b3b3b3b3b3b3b3b3b3b3b3b3b3b3b3b3b3b3b3b3b3b3b3b3b3X2:33323x2w2q2h2g2n2f2X2b2a2W2V2U2b3b3b3b3b3b3b3b3b3b3b3b3b3b3b3b3b3b3Y2Y2",
"T2T2b3b3b3b3b3b3b3b3b3b3b3b3b3b3b3b3b3b3b3b3b3b3b3b3b3S23323x2w2q2h2g2n2f2e2S2a2W2V2R2Q2P2b3b3b3b3b3b3b3b3b3b3b3b3b3b3b3b3b3T2T2",
"O2O2b3b3b3b3b3b3b3b3b3b3b3b3b3b3b3b3b3b3b3b3b3b3b3b3b3N223x2w2q2h2g2n2f2e2b2N2W2V2R2Q2O3M2L2b3b3b3b3b3b3b3b3b3b3b3b3b3b3b3b3O2O2",
"K2K2b3b3b3b3b3b3b3b3b3b3b3b3b3b3b3b3b3b3b3b3b3b3b3b3b3J2x2w2q2h2g2n2f2e2b2a2J2V2R2Q2O3M2I2t2H2b3b3b3b3b3b3b3b3b3b3b3b3b3b3b3K2K2",
"G2G2b3b3b3b3b3b3b3b3b3b3b3b3b3b3b3b3b3b3b3b3b3b3b3b3b3F2w2q2h2g2n2f2e2b2a2W2F2R2Q2O3M2I2t2E2m2D2b3b3b3b3b3b3b3b3b3b3b3b3b3b3G2G2",
"C2C2b3b3b3b3b3b3b3b3b3b3b3b3b3b3b3b3b3b3b3b3b3b3b3b3b3B2q2h2g2n2f2e2b2a2W2V2B2Q2O3M2I2t2E2m2d2Z2A2b3b3b3b3b3b3b3b3b3b3b3b3b3C2C2",
";2;2b3b3b3b3b3b3b3b3b3b3b3b3b3b3b3b3b3b3b3b3b3:2:2:2:2:2:2:2:2:2:2:2:2:2:2:2:2:2:2:2:2E2m2d2Z2U2L292b3b3b3b3b3b3b3b3b3b3b3b3;2;2",
"8282b3b3b3b3b3b3b3b3b3b3b3b3b3b3b3b3b3b3b3b3b372x2w2q2h2g2n2f2e2b2a2626262626262626262626262626262626262626262626252b3b3b3b38282",
"4242b3b3b3b3b3b3b3b3b3b3b3b3b3b3b3b3b3b3b3b3b332w2q2h2g2n2f2e2b2a2W2222222222222222222222212222222222222222222222202b3b3b3b34242",
"z1z1b3b3b3b3b3b3b3b3b3b3b3b3b3b3b3b3b3b3b3b3b3y1q2h2g2n2f2e2b2a2W2V2x1x1x1x1x1x1x1x1x1x1x1x1w1x1x1x1x1x1x1x1x1x1x122b3b3b3b3z1z1",
"v1v1b3b3b3b3b3b3b3b3b3b3b3b3b3b3b3b3b3b3b3b3b3u1h2g2n2f2e2b2a2W2V2R2t1t1t1t1t1t1t1t1t1t1t1s1t1t1t1t1t1t1t1t1t1t1t1r1b3b3b3b3v1v1",
"q1q1b3b3b3b3b3b3b3b3b3b3b3b3b3b3b3b3b3b3b3b3b3p1g2n2f2e2b2a2W2V2R2Q2o1o1o1o1o1o1o1o1o1o1o1o1s1o1o1o1o1o1o1o1o1o1o1n1b3b3b3b3q1q1",
"m1m1b3b3b3b3b3b3b3b3b3b3b3b3b3b3b3b3b3b3b3b3b3l1n2f2e2b2a2W2V2R2Q2O3k1k1k1k1k1k1k1k1k1k1k1s1k1k1k1k1k1k1k1k1k1k1k1j1b3b3b3b3m1m1",
"i1i1b3b3b3b3b3b3b3b3b3b3b3b3b3b3b3b3b3b3b3b3b3h1f2e2b2a2W2V2R2Q2O3M2g1g1g1g1g1g1g1g1g1g1g1g1f1g1g1g1g1g1g1g1g1g1g1e1b3b3b3b3i1i1",
"d1d1b3b3b3b3b3b3b3b3b3b3b3b3b3b3b3b3b3b3b3b3b3c1e2b2a2W2V2R2Q2O3M2I2b1b1b1b1b1b1b1b1b1b1b1a1b1b1b1b1b1b1b1b1b1b1b1g1b3b3b3b3d1d1",
"Z1Z1b3b3b3b3b3b3b3b3b3b3b3b3b3b3b3b3b3b3b3b3b3Y1b2a2W2V2R2Q2O3M2I2t2X1X1X1X1X1X1X1X1X1X1X1a1a1X1X1X1X1X1X1X1X1X1X1W1b3b3b3b3Z1Z1",
"V1V1b3b3b3b3b3b3b3b3b3b3b3b3b3b3b3b3b3b3b3b3b3U1a2W2V2R2Q2O3M2I2t2E2T1T1T1T1T1T1T1T1T1T1T1T1T1T1T1T1T1T1T1T1T1T1T1S1b3b3b3b3V1V1",
"R1R1b3b3b3b3b3b3b3b3b3b3b3b3b3b3b3b3b3b3b3b3b3Q1W2V2R2Q2O3M2I2t2E2m2P1P1P1P1P1P1P1P1P1P1P1P1P1P1P1P1P1P1P1P1P1P1P1O1b3b3b3b3R1R1",
"N1N1b3b3b3b3b3b3b3b3b3b3b3b3b3b3b3b3b3b3b3b3b3M1V2R2Q2O3M2I2t2E2m2d2L1L1L1L1L1L1L1L1L1L1L1L1L1L1L1L1L1L1L1L1L1L1L1K1b3b3b3b3N1N1",
"J1J1b3b3b3b3b3b3b3b3b3b3b3b3b3b3b3b3b3b3b3b3b3I1I1I1I1I1I1I1I1I1I1I1H1H1H1H1H1H1H1H1H1H1H1H1H1H1H1H1H1H1H1H1H1H1H1G1b3b3b3b3J1J1",
"F1F1b3b3b3b3b3b3b3b3b3b3b3b3b3b3b3b3b3b3b3b3b3U2Q2O3M2I2t2E2m2d2Z2U2E1E1E1E1E1E1E1E1E1E1E1E1E1E1E1E1E1E1E1E1E1E1E1D1b3b3b3b3F1F1",
"F1F1b3b3b3b3b3b3b3b3b3b3b3b3b3b3b3b3b3b3b3b3b3b3P2M2I2t2E2m2d2Z2U2L2C1C1C1C1C1C1C1C1C1C1C1C1C1C1C1C1C1C1C1C1C1C1C1B1b3b3b3b3F1F1",
"F1F1b3b3b3b3b3b3b3b3b3b3b3b3b3b3b3b3b3b3b3b3b3b3b3L2t2E2m2d2Z2U2L2H2A1A1A1A1A1A1A1A1A1A1A1A1A1A1A1A1A1A1A1A1A1A1A1;1b3b3b3b3F1F1",
"F1F1b3b3b3b3b3b3b3b3b3b3b3b3b3b3b3b3b3b3b3b3b3b3b3b3H2m2d2Z2U2L2H2D2:1:1:1:1:1:1:1:1:1:1:1:1:1:1:1:1:1:1:1:1:1:1:191b3b3b3b3F1F1",
"F1F1b3b3b3b3b3b3b3b3b3b3b3b3b3b3b3b3b3b3b3b3b3b3b3b3b3D2Z2U2L2H2D2A2818181818181818181818181818181818181818181818171b3b3b3b3F1F1",
"F1F1b3b3b3b3b3b3b3b3b3b3b3b3b3b3b3b3b3b3b3b3b3b3b3b3b3b3A2L2H2D2A292616161616161616161616161616161616161616161616151b3b3b3b3F1F1",
"F1F14131211101z0y0x0w0v0u0t0s0r0q0p0o041n0m0l0k0j0i0h0g0f0e0d0c0f0b0a0a0a0a0a0a0a0a0a0a0a0a0a0a0a0a0a0a0a0a0a0a0a0Z0F1F1F1F1F1F1",
"F1F1F1Y01101z0y0x0w0v0u0t0s0r0q0p0o041n0m0l0k0j0i0h0g0f0X0W0f0f0b0b0V0V0V0V0V0V0V0V0V0V0V0V0V0V0V0V0V0V0V0V0V0V0V0U0F1F1F1F1F1F1",
"T0T0T0T0S0R0Q0P0O0N0M0L0K0J0I0H0G0F0S0E0D0C0B0A0;0:09080706050504040303030303030303030303030303030303030303030303020T0T0T0T0T0T0",
"                                                                    101010101010101010101010101010101010101010101010            ",
"                                                                    000000000000000000000000000000000000000000000000            ",
"                                                                                                                                ",
"                                                                                                                                ",
"                                                                                                                                ",
"                                                                                                                                "};
