/* XPM */
static char *image[] = {
"64 64 76 2",
"   c None",
"00 c #535353",
"10 c #545454",
"20 c #555555",
"30 c #565656",
"40 c #575757",
"50 c #585858",
"60 c #595959",
"70 c #5a5a5a",
"80 c #5b5b5b",
"90 c #5c5c5c",
":0 c #5d5d5d",
";0 c #5e5e5e",
"A0 c #5f5f5f",
"B0 c #606060",
"C0 c #616161",
"D0 c #626262",
"E0 c #b5b5b5",
"F0 c #636363",
"G0 c #bdbdbd",
"H0 c #646464",
"I0 c #c5c5c5",
"J0 c #656565",
"K0 c #cdcdcd",
"L0 c #d0d0d0",
"M0 c #666666",
"N0 c #d7d7d7",
"O0 c #dddddd",
"P0 c #dfdfdf",
"Q0 c #e5e5e5",
"R0 c #eaeaea",
"S0 c #676767",
"T0 c #eeeeee",
"U0 c #808080",
"V0 c #f0f0f0",
"W0 c #686868",
"X0 c #858585",
"Y0 c #f3f3f3",
"Z0 c #8a8a8a",
"a0 c #f6f6f6",
"b0 c #696969",
"c0 c #8d8d8d",
"d0 c #f7f7f7",
"e0 c #949494",
"f0 c #fafafa",
"g0 c #6a6a6a",
"h0 c #9a9a9a",
"i0 c #fcfcfc",
"j0 c #a0a0a0",
"k0 c #fdfdfd",
"l0 c #6b6b6b",
"m0 c #a4a4a4",
"n0 c #acacac",
"o0 c #fefefe",
"p0 c #b3b3b3",
"q0 c #6c6c6c",
"r0 c #737373",
"s0 c #b7b7b7",
"t0 c #ffffff",
"u0 c #747474",
"v0 c #6d6d6d",
"w0 c #757575",
"x0 c #6e6e6e",
"y0 c #6f6f6f",
"z0 c #707070",
"01 c #717171",
"11 c #727272",
"21 c #767676",
"31 c #777777",
"41 c #787878",
"51 c #797979",
"61 c #7a7a7a",
"71 c #7b7b7b",
"81 c #7c7c7c",
"91 c #7e7e7e",
":1 c #7d7d7d",
"            :19191919191919191:1:18181817171716161615151514141313131212131                111111010101z0z0z0y0y0y0x0            ",
"          9191919191919191:1:1:18181817171716161615151414141313131212121w0w0            111111010101z0z0z0y0y0x0x0x0v0          ",
"          91919191919191:1:1:181818171716161615151514141413131312121w0w0w0u0u0          11110101z0z0z0y0y0y0x0x0x0v0v0          ",
"          919191t0t0t0t0t0t0t0t0t0t0t0t0t0t0t0t0t0t0t0t0t0t0t0t0t0t0t0s0u0u0u0r0          0101z0z0z0y0y0y0x0x0x0v0v0q0          ",
"          919191t0t0t0t0t0t0t0t0t0t0t0t0t0t0t0t0t0t0t0t0t0t0t0t0t0t0t0t0p0r0r0r011          z0z0z0y0y0x0x0x0v0v0v0q0q0          ",
"          919191t0t0t0t0t0t0t0t0t0t0t0t0t0t0t0t0t0t0t0t0t0t0t0t0t0t0t0t0o0n0r0111111        y0y0y0y0x0x0x0v0v0v0q0q0q0          ",
"          9191:1t0t0t0t0t0t0t0t0t0t0t0t0t0t0t0t0t0t0t0t0t0t0t0t0t0t0t0t0t0o0m011010101        y0y0x0x0x0v0v0q0q0q0l0l0          ",
"          :1:1:1t0t0t0t0t0t0t0t0t0t0t0t0t0t0t0t0t0t0t0t0t0t0t0t0t0t0t0t0t0t0k0j00101z0z0        x0x0v0v0v0q0q0q0l0l0l0          ",
"          :1:181t0t0t0t0t0t0t0t0t0t0t0t0t0t0t0t0t0t0t0t0t0t0t0t0t0t0t0t0t0t0t0i0h0z0z0y0y0        v0v0v0q0q0q0l0l0g0g0          ",
"          :18181t0t0t0t0t0t0t0t0t0t0t0t0t0t0t0t0t0t0t0t0t0t0t0t0t0t0t0t0t0t0t0t0f0e0y0y0y0x0        q0q0q0l0l0l0g0g0g0          ",
"          818171t0t0t0t0t0t0t0t0t0t0t0t0t0t0t0t0t0t0t0t0t0t0t0t0t0t0t0t0t0t0t0t0t0d0c0y0x0x0v0        q0l0l0l0g0g0g0b0          ",
"          817171t0t0t0t0t0t0t0t0t0t0t0t0t0t0t0t0t0t0t0t0t0t0t0t0t0t0t0t0t0t0t0t0t0t0a0Z0x0v0v0x0        l0g0g0g0b0b0b0          ",
"          717161t0t0t0t0t0t0t0t0t0t0t0t0t0t0t0t0t0t0t0t0t0t0t0t0t0t0t0t0t0t0t0t0t0t0t0Y0X0v0q0q0q0        g0g0b0b0b0W0          ",
"          716161t0t0t0t0t0t0t0t0t0t0t0t0t0t0t0t0t0t0t0t0t0t0t0t0t0t0t0t0t0t0t0t0t0t0t0t0V0U0q0q0l0l0        b0b0W0W0W0          ",
"          616151t0t0t0t0t0t0t0t0t0t0t0t0t0t0t0t0t0t0t0t0t0t0t0t0t0t0t0t0t0t0t0t0t0t0t0t0t0T091l0l0g0g0        W0W0W0S0          ",
"          615151t0t0t0t0t0t0t0t0t0t0t0t0t0t0t0t0t0t0t0t0t0t0t0t0t0t0t0t0t0t0t0t0t0t0t0t0t0t0R051g0g0g0          W0S0            ",
"          515151t0t0t0t0t0t0t0t0t0t0t0t0t0t0t0t0t0t0t0t0t0t0t0t0t0t0t0t0t0t0t0t0t0t0t0t0t0t0t0Q0w0g0b0b0                        ",
"          514141t0t0t0t0t0t0t0t0t0t0t0t0t0t0t0t0t0t0t0t0t0t0t0t0t0t0t0t0t0t0t0t0t0t0t0t0t0t0t0t0P001b0W0W0                      ",
"          414141t0t0t0t0t0t0t0t0t0t0t0t0t0t0t0t0t0t0t0t0t0t0t0t0t0t0t0t0t0t0t0t0t0t0t0t0t0t0t0t0t0O0y0W0W0S0                    ",
"          413131t0t0t0t0t0t0t0t0t0t0t0t0t0t0t0t0t0t0t0t0t0t0t0t0t0t0t0t0t0t0t0t0t0t0t0t0t0t0t0t0t0t0N0q0S0S0M0                  ",
"          313131t0t0t0t0t0t0t0t0t0t0t0t0t0t0t0t0t0t0t0t0t0t0t0t0t0t0t0t0t0t0t0t0t0t0t0t0t0t0t0t0t0t0t0L0g0M0M0M0                ",
"          313121t0t0t0t0t0t0t0t0t0t0t0t0t0t0t0t0t0t0t0t0t0t0t0t0t0t0t0t0t0t0t0t0t0t0t0t0t0t0t0t0t0t0t0t0K0W0J0J0J0              ",
"          212121t0t0t0t0t0t0t0t0t0t0t0t0t0t0t0t0t0t0t0t0t0t0t0t0t0t0t0t0t0t0t0t0t0t0t0t0t0t0t0t0t0t0t0t0t0I0M0J0H0H0            ",
"          2121w0t0t0t0t0t0t0t0t0t0t0t0t0t0t0t0t0t0t0t0t0t0t0t0t0t0t0t0t0t0t0t0t0t0t0t0t0t0t0t0t0t0t0t0t0t0t0G0H0H0F0F0          ",
"          w0w0w0t0t0t0t0t0t0t0t0t0t0t0t0t0t0t0t0t0t0t0t0t0t0t0t0t0t0t0t0t0t0t0t0t0t0t0t0t0t0t0t0t0t0t0t0t0t0t0E0F0F0F0          ",
"          w0w0u0t0t0t0t0t0t0t0t0t0t0t0t0t0t0t0t0t0t0t0t0t0t0t0t0t0t0t0t0t0t0t0t0t0t0t0t0t0t0t0t0t0t0t0t0t0t0t0t0F0D0D0          ",
"          w0u0u0t0t0t0t0t0t0t0t0t0t0t0t0t0t0t0t0t0t0t0t0t0t0t0t0t0t0t0t0t0t0t0t0t0t0t0t0t0t0t0t0t0t0t0t0t0t0t0t0D0D0D0          ",
"          u0u0r0t0t0t0t0t0t0t0t0t0t0t0t0t0t0t0t0t0t0t0t0t0t0t0t0t0t0t0t0t0t0t0t0t0t0t0t0t0t0t0t0t0t0t0t0t0t0t0t0D0D0C0          ",
"          u0r0r0t0t0t0t0t0t0t0t0t0t0t0t0t0t0t0t0t0t0t0t0t0t0t0t0t0t0t0t0t0t0t0t0t0t0t0t0t0t0t0t0t0t0t0t0t0t0t0t0C0C0C0          ",
"          r0r011t0t0t0t0t0t0t0t0t0t0t0t0t0t0t0t0t0t0t0t0t0t0t0t0t0t0t0t0t0t0t0t0t0t0t0t0t0t0t0t0t0t0t0t0t0t0t0t0C0C0B0          ",
"          r01111t0t0t0t0t0t0t0t0t0t0t0t0t0t0t0t0t0t0t0t0t0t0t0t0t0t0t0t0t0t0t0t0t0t0t0t0t0t0t0t0t0t0t0t0t0t0t0t0B0B0B0          ",
"          111101t0t0t0t0t0t0t0t0t0t0t0t0t0t0t0t0t0t0t0t0t0t0t0t0t0t0t0t0t0t0t0t0t0t0t0t0t0t0t0t0t0t0t0t0t0t0t0t0B0B0A0          ",
"          110101t0t0t0t0t0t0t0t0t0t0t0t0t0t0t0t0t0t0t0t0t0t0t0t0t0t0t0t0t0t0t0t0t0t0t0t0t0t0t0t0t0t0t0t0t0t0t0t0B0A0A0          ",
"          010101t0t0t0t0t0t0t0t0t0t0t0t0t0t0t0t0t0t0t0t0t0t0t0t0t0t0t0t0t0t0t0t0t0t0t0t0t0t0t0t0t0t0t0t0t0t0t0t0A0A0;0          ",
"          01z0z0t0t0t0t0t0t0t0t0t0t0t0t0t0t0t0t0t0t0t0t0t0t0t0t0t0t0t0t0t0t0t0t0t0t0t0t0t0t0t0t0t0t0t0t0t0t0t0t0A0;0;0          ",
"          z0z0z0t0t0t0t0t0t0t0t0t0t0t0t0t0t0t0t0t0t0t0t0t0t0t0t0t0t0t0t0t0t0t0t0t0t0t0t0t0t0t0t0t0t0t0t0t0t0t0t0;0;0:0          ",
"          z0y0y0t0t0t0t0t0t0t0t0t0t0t0t0t0t0t0t0t0t0t0t0t0t0t0t0t0t0t0t0t0t0t0t0t0t0t0t0t0t0t0t0t0t0t0t0t0t0t0t0;0:0:0          ",
"          y0y0y0t0t0t0t0t0t0t0t0t0t0t0t0t0t0t0t0t0t0t0t0t0t0t0t0t0t0t0t0t0t0t0t0t0t0t0t0t0t0t0t0t0t0t0t0t0t0t0t0:0:090          ",
"          y0y0x0t0t0t0t0t0t0t0t0t0t0t0t0t0t0t0t0t0t0t0t0t0t0t0t0t0t0t0t0t0t0t0t0t0t0t0t0t0t0t0t0t0t0t0t0t0t0t0t0:09090          ",
"          x0x0x0t0t0t0t0t0t0t0t0t0t0t0t0t0t0t0t0t0t0t0t0t0t0t0t0t0t0t0t0t0t0t0t0t0t0t0t0t0t0t0t0t0t0t0t0t0t0t0t0909090          ",
"          x0x0v0t0t0t0t0t0t0t0t0t0t0t0t0t0t0t0t0t0t0t0t0t0t0t0t0t0t0t0t0t0t0t0t0t0t0t0t0t0t0t0t0t0t0t0t0t0t0t0t0908080          ",
"          v0v0v0t0t0t0t0t0t0t0t0t0t0t0t0t0t0t0t0t0t0t0t0t0t0t0t0t0t0t0t0t0t0t0t0t0t0t0t0t0t0t0t0t0t0t0t0t0t0t0t0808080          ",
"          v0v0q0t0t0t0t0t0t0t0t0t0t0t0t0t0t0t0t0t0t0t0t0t0t0t0t0t0t0t0t0t0t0t0t0t0t0t0t0t0t0t0t0t0t0t0t0t0t0t0t0807070          ",
"          v0q0q0t0t0t0t0t0t0t0t0t0t0t0t0t0t0t0t0t0t0t0t0t0t0t0t0t0t0t0t0t0t0t0t0t0t0t0t0t0t0t0t0t0t0t0t0t0t0t0t0707070          ",
"          q0q0l0t0t0t0t0t0t0t0t0t0t0t0t0t0t0t0t0t0t0t0t0t0t0t0t0t0t0t0t0t0t0t0t0t0t0t0t0t0t0t0t0t0t0t0t0t0t0t0t0707060          ",
"          q0l0l0t0t0t0t0t0t0t0t0t0t0t0t0t0t0t0t0t0t0t0t0t0t0t0t0t0t0t0t0t0t0t0t0t0t0t0t0t0t0t0t0t0t0t0t0t0t0t0t0606060          ",
"          l0l0g0t0t0t0t0t0t0t0t0t0t0t0t0t0t0t0t0t0t0t0t0t0t0t0t0t0t0t0t0t0t0t0t0t0t0t0t0t0t0t0t0t0t0t0t0t0t0t0t0606050          ",
"          l0g0g0t0t0t0t0t0t0t0t0t0t0t0t0t0t0t0t0t0t0t0t0t0t0t0t0t0t0t0t0t0t0t0t0t0t0t0t0t0t0t0t0t0t0t0t0t0t0t0t0505050          ",
"          g0g0b0t0t0t0t0t0t0t0t0t0t0t0t0t0t0t0t0t0t0t0t0t0t0t0t0t0t0t0t0t0t0t0t0t0t0t0t0t0t0t0t0t0t0t0t0t0t0t0t0505040          ",
"          g0b0b0t0t0t0t0t0t0t0t0t0t0t0t0t0t0t0t0t0t0t0t0t0t0t0t0t0t0t0t0t0t0t0t0t0t0t0t0t0t0t0t0t0t0t0t0t0t0t0t0504040          ",
"          b0b0b0t0t0t0t0t0t0t0t0t0t0t0t0t0t0t0t0t0t0t0t0t0t0t0t0t0t0t0t0t0t0t0t0t0t0t0t0t0t0t0t0t0t0t0t0t0t0t0t0404030          ",
"          b0W0W0t0t0t0t0t0t0t0t0t0t0t0t0t0t0t0t0t0t0t0t0t0t0t0t0t0t0t0t0t0t0t0t0t0t0t0t0t0t0t0t0t0t0t0t0t0t0t0t0403030          ",
"          W0W0W0t0t0t0t0t0t0t0t0t0t0t0t0t0t0t0t0t0t0t0t0t0t0t0t0t0t0t0t0t0t0t0t0t0t0t0t0t0t0t0t0t0t0t0t0t0t0t0t0303020          ",
"          W0S0S0t0t0t0t0t0t0t0t0t0t0t0t0t0t0t0t0t0t0t0t0t0t0t0t0t0t0t0t0t0t0t0t0t0t0t0t0t0t0t0t0t0t0t0t0t0t0t0t0302020          ",
"          S0S0S0t0t0t0t0t0t0t0t0t0t0t0t0t0t0t0t0t0t0t0t0t0t0t0t0t0t0t0t0t0t0t0t0t0t0t0t0t0t0t0t0t0t0t0t0t0t0t0t0202010          ",
"          S0S0M0t0t0t0t0t0t0t0t0t0t0t0t0t0t0t0t0t0t0t0t0t0t0t0t0t0t0t0t0t0t0t0t0t0t0t0t0t0t0t0t0t0t0t0t0t0t0t0t0201010          ",
"          M0M0M0t0t0t0t0t0t0t0t0t0t0t0t0t0t0t0t0t0t0t0t0t0t0t0t0t0t0t0t0t0t0t0t0t0t0t0t0t0t0t0t0t0t0t0t0t0t0t0t0101010          ",
"          M0M0J0t0t0t0t0t0t0t0t0t0t0t0t0t0t0t0t0t0t0t0t0t0t0t0t0t0t0t0t0t0t0t0t0t0t0t0t0t0t0t0t0t0t0t0t0t0t0t0t0100000          ",
"          J0J0J0t0t0t0t0t0t0t0t0t0t0t0t0t0t0t0t0t0t0t0t0t0t0t0t0t0t0t0t0t0t0t0t0t0t0t0t0t0t0t0t0t0t0t0t0t0t0t0t0000000          ",
"          J0J0H0t0t0t0t0t0t0t0t0t0t0t0t0t0t0t0t0t0t0t0t0t0t0t0t0t0t0t0t0t0t0t0t0t0t0t0t0t0t0t0t0t0t0t0t0t0t0t0t0000000          ",
"          J0H0H0t0t0t0t0t0t0t0t0t0t0t0t0t0t0t0t0t0t0t0t0t0t0t0t0t0t0t0t0t0t0t0t0t0t0t0t0t0t0t0t0t0t0t0t0t0t0t0t0000000          ",
"          H0H0F0F0F0D0D0D0C0C0B0B0B0A0A0A0;0;0;0:0:0:09090808080707070606060505050404040303020202010101000000000000000          ",
"          H0F0F0F0D0D0C0C0C0B0B0B0A0A0A0;0;0;0:0:090909080808070707060606050504040403030302020201010100000000000000010          ",
"          D0F0D0D0D0C0C0C0B0B0B0A0A0;0;0;0:0:0:090909080808070706060605050504040403030302020101010000000000000000000            "};
