<svg xmlns="http://www.w3.org/2000/svg" viewBox="0 0 167.6 177.66"><defs><style>.cls-1{fill:#faf6f0;}.cls-2{fill:#d3d6d8;}.cls-3{fill:#d4d7d9;}.cls-4{fill:#fff;stroke:#002a44;stroke-miterlimit:10;stroke-width:4px;}.cls-5{fill:#002a44;}</style></defs><g id="Layer_4" data-name="Layer 4"><path class="cls-1" d="M158.09,11H70V37.71a11.14,11.14,0,0,1-11.11,11.1H32.18V177.56a11.13,11.13,0,0,0,11.1,11.1H158.09a11.13,11.13,0,0,0,11.1-11.1V22.1A11.13,11.13,0,0,0,158.09,11Z" transform="translate(-32.18 -11)"/><path class="cls-2" d="M70,37.71V11h-.1L32.18,48.76v.05H58.92A11.14,11.14,0,0,0,70,37.71Z" transform="translate(-32.18 -11)"/><rect class="cls-3" x="21.68" y="123.84" width="93.66" height="7.03" rx="3.51"/><rect class="cls-3" x="21.68" y="102.03" width="93.66" height="7.03" rx="3.51"/><rect class="cls-3" x="21.68" y="80.21" width="93.66" height="7.03" rx="3.51"/><rect class="cls-3" x="21.68" y="58.4" width="93.66" height="7.03" rx="3.51"/><rect class="cls-3" x="21.68" y="145.66" width="46.83" height="7.03" rx="3.51"/><path id="path6" d="M145,146.94a12.61,12.61,0,0,1,6.7-3.78c.86,0,1.72-.11,2.54-.15a8,8,0,0,1,2.84.74,11.78,11.78,0,0,1,3.63,3.29,15.35,15.35,0,0,1,2.84,6.48,16.18,16.18,0,0,1,.08,2.41,10.16,10.16,0,0,1-1.2-2.14,10.61,10.61,0,0,0-2.06-2.5,6.64,6.64,0,0,0-4.41-1.83,5.86,5.86,0,0,0-1.87.24,9.17,9.17,0,0,0-4.44,2.69c-.39.47-.82.9-1.17,1.37-.35.62-.78,1.17-1.06,1.8a14.12,14.12,0,0,0-1.59,5.92c.07.82.07,1.6.15,2.42.24.55.12,1.29.7,1.6a2.69,2.69,0,0,0,1.17-.3,29.9,29.9,0,0,0,2.5-2.34c.93-.78,1.6-1.8,2.49-2.65.51-.39.82-.9,1.33-1.29a17.74,17.74,0,0,1,3-2.41,5,5,0,0,1,2.77-.74,4.35,4.35,0,0,1,3,1.75,13.62,13.62,0,0,1,2.09,4.68c.2.85.12,1.75.24,2.65a30.53,30.53,0,0,1-1.56,8.73,12.39,12.39,0,0,1-1.37,2.81c-.19.23-.31.54-.59.62a15.82,15.82,0,0,1,.29-1.72,7.57,7.57,0,0,0,.08-1.9,18.41,18.41,0,0,0,0-3c-.23-1-.27-2-.6-3a7.8,7.8,0,0,0-.77-2,3.16,3.16,0,0,0-.78-1.09,2.7,2.7,0,0,0-1.41-.6,5.89,5.89,0,0,0-1.13.35,10.73,10.73,0,0,0-2.26,2.1,13.74,13.74,0,0,1-1.91,1.64,5.1,5.1,0,0,1-3.55,1,11.46,11.46,0,0,1-4.83-1.72,9.32,9.32,0,0,1-1.91-1.52,9.58,9.58,0,0,1-2.58-5.37,4.44,4.44,0,0,1-.11-1.88,16.33,16.33,0,0,1,1.83-7.13,19.74,19.74,0,0,1,1.94-2.92A2.94,2.94,0,0,1,145,146.94Z" transform="translate(-32.18 -11)"/><path id="path3742" d="M125.07,180.43a12.67,12.67,0,0,1-6.71,3.78c-.86,0-1.71.12-2.53.16a8.28,8.28,0,0,1-2.85-.74,11.73,11.73,0,0,1-3.62-3.32,15.33,15.33,0,0,1-2.85-6.47,17.74,17.74,0,0,1-.08-2.42,9.85,9.85,0,0,1,1.2,2.15,10.18,10.18,0,0,0,2.07,2.49,6.65,6.65,0,0,0,4.4,1.84,6.16,6.16,0,0,0,1.87-.24,9.15,9.15,0,0,0,4.45-2.7c.39-.46.81-.89,1.16-1.36a19.66,19.66,0,0,0,1.06-1.8,14.28,14.28,0,0,0,1.6-5.92c-.08-.82-.08-1.6-.16-2.42-.23-.55-.12-1.29-.7-1.6a2,2,0,0,0-1.17.3,15.83,15.83,0,0,0-2.5,2.34c-.93.78-1.59,1.8-2.49,2.65-.51.39-.82.9-1.33,1.29a18.31,18.31,0,0,1-3,2.42,5.17,5.17,0,0,1-2.77.74,4.35,4.35,0,0,1-3-1.76,13.37,13.37,0,0,1-2.1-4.68c-.2-.85-.12-1.75-.24-2.65a30.53,30.53,0,0,1,1.56-8.73,12.61,12.61,0,0,1,1.37-2.81c.19-.23.3-.54.58-.62a12.68,12.68,0,0,1-.3,1.71A7.73,7.73,0,0,0,108,154a18.3,18.3,0,0,0,0,3c.23,1,.27,2,.58,3a7.36,7.36,0,0,0,.78,2,3,3,0,0,0,.78,1.09,2.69,2.69,0,0,0,1.4.59,5.51,5.51,0,0,0,1.13-.36,10.22,10.22,0,0,0,2.26-2.09,13.65,13.65,0,0,1,1.91-1.64,5.14,5.14,0,0,1,3.55-1,11.5,11.5,0,0,1,4.84,1.72,10.31,10.31,0,0,1,1.9,1.52,9.66,9.66,0,0,1,2.62,5.4,4.38,4.38,0,0,1,.11,1.87,16.3,16.3,0,0,1-1.83,7.13,18.11,18.11,0,0,1-1.95,2.92A3.29,3.29,0,0,1,125.07,180.43Z" transform="translate(-32.18 -11)"/><path id="path10" d="M130.37,149.13a6.42,6.42,0,0,1,5.3.39,4.25,4.25,0,0,1,1.37,1.63,2.91,2.91,0,0,1-.16,2.54,5.42,5.42,0,0,1-2.38,2.38,5.35,5.35,0,0,1-2.41.66,5.29,5.29,0,0,1-2.7-.35,3.85,3.85,0,0,1-2.3-2.38,3,3,0,0,1,.39-2.42A5.36,5.36,0,0,1,130.37,149.13Z" transform="translate(-32.18 -11)"/><path id="path12" d="M130.52,159.46a4,4,0,0,1,3.47-1.91,5.25,5.25,0,0,1,2.07.54,3.15,3.15,0,0,1,1.91,2.15,17.36,17.36,0,0,0,.35,3.43,13,13,0,0,0,3.94,5.88c.86,1,2,1.72,2.88,2.73a27.28,27.28,0,0,1-3.93-.41,13.47,13.47,0,0,1-4.53-1.6,10,10,0,0,1-2.22-1.52,12.5,12.5,0,0,1-2.77-3.08,9.91,9.91,0,0,1-1.59-4.5A5.3,5.3,0,0,1,130.52,159.46Z" transform="translate(-32.18 -11)"/><path class="cls-4" d="M187.24,24.33H111.06a10.56,10.56,0,0,0-10.53,10.53V80.54a10.56,10.56,0,0,0,10.53,10.53h12.63v20.11L143.8,91.07h43.44a10.57,10.57,0,0,0,10.54-10.53V34.86A10.57,10.57,0,0,0,187.24,24.33Z" transform="translate(-32.18 -11)"/><rect class="cls-5" x="105.37" y="22.75" width="5.08" height="48.19" rx="2.54"/><rect class="cls-5" x="114.43" y="27.41" width="5.08" height="38.88" rx="2.54"/><rect class="cls-5" x="123.5" y="39.05" width="5.08" height="15.59" rx="2.54"/><rect class="cls-5" x="132.56" y="35.94" width="5.08" height="21.81" rx="2.54"/><rect class="cls-5" x="141.62" y="43.44" width="5.08" height="6.82" rx="2.54"/><rect class="cls-5" x="87.25" y="39.05" width="5.08" height="15.59" rx="2.54"/><rect class="cls-5" x="96.31" y="35.94" width="5.08" height="21.81" rx="2.54"/></g></svg>